<svg width="163" height="124" viewBox="0 0 163 124" fill="none" xmlns="http://www.w3.org/2000/svg">
    <g clip-path="url(#clip0_18_15)">
        <path
            d="M155.986 62.0984C161.617 77.0572 163.099 91.5238 156.579 106.286C155.393 109.041 155.986 112.683 155.887 115.93C155.887 123.114 155.097 124 148.182 124C141.267 124 140.18 123.016 139.983 116.225C139.983 115.537 139.884 114.946 139.884 113.962C108.766 113.962 77.7462 113.962 46.5292 113.962C46.4305 114.848 46.3317 115.635 46.3317 116.422C46.1341 123.016 45.1462 124 38.5274 124C31.4147 124 30.6244 123.311 30.7232 116.225C30.822 111.403 29.7353 107.171 27.9571 102.644C23.1165 90.2445 24.302 77.7461 28.945 65.4445C29.3402 64.3619 29.8341 63.3778 29.8341 63.3778C27.3644 61.0159 24.0056 59.2445 23.4129 56.8826C22.1286 51.6667 22.2274 46.6476 30.328 47.6318C37.1444 48.4191 41.1947 45.8603 43.368 39.7588C48.8014 24.4064 59.9644 18.9937 75.6717 20.9619C77.9438 21.2572 81.105 22.0445 81.5989 18.0095C81.5989 17.9111 85.4517 17.8127 85.4517 18.108C86.0444 22.1429 89.1068 20.9619 91.4777 20.9619C100.467 20.9619 109.556 21.0603 118.546 20.9619C128.128 20.8635 135.34 24.4064 139.39 33.4603C140.279 35.4286 141.563 37.1016 142.353 39.0699C144.823 45.2699 148.577 48.9111 155.986 47.5334C159.049 46.9429 162.506 47.5334 162.901 51.8635C163.297 55.8984 163.297 59.8349 158.357 61.4095C157.567 61.6064 156.777 61.8032 155.986 62.0984ZM88.3165 48.5175C85.3529 48.1238 82.982 47.2381 80.6111 47.5334C75.5729 48.1238 72.708 52.3556 73.0044 57.7683C73.3008 62.8857 77.3511 66.3302 83.5747 66.3302C98.9856 66.4286 114.397 66.4286 129.709 66.3302C131.289 66.3302 132.969 66.0349 134.549 65.6413C138.6 64.4603 140.18 61.4095 139.983 57.473C139.785 53.7334 137.414 51.5683 133.858 50.8794C132.178 50.4857 130.4 50.4857 128.82 50.3873C125.164 39.0699 118.644 37.0032 105.703 43.0064C102.048 37.7905 98.3929 35.9207 93.9474 37.5937C88.9092 39.4635 87.7238 43.5968 88.3165 48.5175ZM135.34 47.4349C135.636 47.1397 135.833 46.8445 136.13 46.4508C134.747 43.0064 133.166 39.6603 131.882 36.2159C129.906 30.9016 125.658 28.6381 120.521 28.5397C102.147 28.3429 83.8711 28.2445 65.4965 28.7365C62.0389 28.8349 56.8032 30.8032 55.5189 33.4603C50.8759 42.4159 47.6159 52.0603 43.6644 62C52.8517 62 61.1499 62 69.448 62C67.9662 50.5841 72.5105 43.9905 84.4638 43.5968C89.1068 32.5746 95.6268 30.508 105.506 36.6095C106.493 37.2 108.272 37.2984 109.457 37.0032C119.138 34.4445 124.572 36.4127 130.697 44.581C131.783 45.8603 133.759 46.4508 135.34 47.4349ZM59.3717 89.1619C59.3717 83.7492 53.2468 77.7461 47.4183 77.6476C43.5656 77.5492 40.7008 80.4032 40.7008 84.3397C40.7008 89.9492 46.7268 95.854 52.4565 95.854C56.3092 95.854 59.2729 93 59.3717 89.1619ZM133.561 95.854C138.995 95.854 145.317 89.9492 145.416 84.7334C145.515 80.7968 142.255 77.6476 138.204 77.6476C132.672 77.7461 126.646 83.6508 126.547 89.0635C126.547 92.8032 129.709 95.854 133.561 95.854ZM92.9595 96.9365C99.3808 96.9365 105.703 97.035 112.124 96.8381C113.211 96.8381 114.298 95.5588 115.384 94.7715C114.298 93.8857 113.211 92.1143 112.124 92.1143C99.5783 91.9175 86.9335 91.9175 74.2886 92.1143C73.1032 92.1143 71.9177 93.7873 70.8311 94.5746C72.0165 95.3619 73.1032 96.7397 74.3874 96.7397C80.5123 97.1334 86.7359 97.0349 92.9595 96.9365Z"
            fill="black" />
        <path
            d="M7.80424 21.0603C5.03818 20.8635 2.96364 20.7651 0 20.5682C0 18.7968 0 17.1238 0 15.4508C0 13.8762 0 12.2032 0 10.4317C0.790303 10.2349 1.38303 9.84126 1.97576 9.93967C7.21152 10.9238 10.1752 8.95554 11.2618 3.64126C11.5582 2.26348 13.3364 0.393639 14.6206 0.295226C20.5479 -0.0984247 26.4752 0.0984007 32.7976 0.0984007C32.7976 1.96824 32.7976 4.92062 32.7976 8.26665C27.957 8.66031 22.9188 4.62538 17.1891 9.44761C18.6709 10.4317 20.3503 10.8254 20.7455 11.8095C21.437 13.7778 22.2273 16.2381 21.6345 18.1079C21.2394 19.3873 18.5721 20.7651 16.9915 20.6667C12.9412 20.3714 11.657 22.1428 10.1752 25.6857C1.67939 46.3524 4.34667 65.9365 14.423 85.3238C17.1891 90.7365 18.4733 97.3301 18.8685 103.432C19.3624 110.517 12.1509 116.422 5.33455 115.832C4.34667 115.733 3.55636 114.946 2.56848 114.552C3.45758 113.863 4.14909 112.879 5.13697 112.584C13.5339 110.616 16.7939 106.089 15.0158 97.8222C14.1267 93.5905 12.4473 89.4571 10.6691 85.5206C5.13697 73.4159 -0.296364 61.2127 1.38303 47.6317C2.17333 41.0381 4.14909 34.6413 5.7297 28.146C6.22364 25.9809 6.91515 23.8159 7.80424 21.0603Z"
            fill="black" />
    </g>
    <defs>
        <clipPath id="clip0_18_15">
            <rect width="163" height="124" fill="white" />
        </clipPath>
    </defs>
</svg>
    