<svg width="153" height="150" viewBox="0 0 153 150" fill="none" xmlns="http://www.w3.org/2000/svg">
    <g clip-path="url(#clip0_18_240)">
        <path
            d="M152.956 90.518C152.956 94.8777 152.956 99.0648 152.956 103.424C152.263 103.424 151.657 103.424 151.007 103.424C136.452 103.424 121.94 103.424 107.385 103.424C104.483 103.424 103.487 104.504 103.747 107.396C104.7 118.317 111.934 126.518 122.634 128.763C124.366 129.108 126.186 129.237 127.918 129.237C136.192 129.281 144.466 129.281 152.87 129.281C152.87 130.964 152.87 132.604 152.87 134.374C152.393 134.417 151.873 134.46 151.353 134.46C136.669 134.46 121.94 134.547 107.256 134.417C96.296 134.331 85.3365 133.468 74.5069 131.957C69.612 131.266 64.717 130.489 59.8221 129.626C52.0248 128.201 46.6533 121.64 46.6533 113.741C46.6533 104.158 46.6533 94.5755 46.6533 84.9928C46.6533 84.518 46.6533 84.0432 46.6533 83.3094C49.2091 83.741 51.6349 84.1295 54.0174 84.518C63.5907 86.2014 73.2507 87.2374 82.954 87.6259C86.0729 87.7554 89.2351 87.8417 92.3541 87.9281C95.0398 87.9712 96.1227 86.7194 95.6896 84.1295C93.437 70.0576 83.084 59.6115 68.9622 57.3237C67.0995 57.0216 65.1935 56.9784 63.3308 56.9353C60.9483 56.8921 58.6092 56.9353 56.0101 56.9353C56.27 56.5036 56.3999 56.2446 56.6165 56.0288C60.4285 51.3669 64.2838 46.705 68.0958 42.0432C68.3991 41.6978 68.7889 41.2662 69.1788 41.1799C73.0341 40.5755 76.9328 40.0144 80.7015 39.4532C80.7015 40.5755 80.3549 41.7842 80.7881 42.518C81.2646 43.295 82.3909 43.813 83.3439 44.1583C89.0619 46.2734 92.1808 50.4173 93.2204 56.2878C93.3071 56.6763 93.3071 57.0216 93.437 57.4101C93.8269 58.6619 94.6499 59.482 95.9928 59.4389C97.249 59.3957 98.1154 58.6187 98.4186 57.4101C98.6785 56.4173 98.8085 55.4245 99.0684 54.4317C100.455 49.1655 103.79 45.7122 108.945 44.0288C110.374 43.554 111.457 42.8633 111.457 41.3094C111.414 39.7986 110.374 39.1511 108.988 38.7194C107.862 38.4173 106.822 37.8561 105.783 37.2086C121.464 35.7842 137.145 36.3885 152.913 36.1727C152.913 44.8489 152.913 53.3525 152.913 62.0288C152.306 62.0288 151.7 62.0288 151.137 62.0288C138.531 62.0288 125.969 62.0288 113.363 62.0288C105.09 62.0288 101.061 66.0432 101.148 74.3741C101.191 81.5827 105.176 87.4532 111.761 89.5683C113.623 90.1727 115.659 90.4317 117.652 90.4748C128.871 90.5612 140.134 90.518 151.353 90.518C151.787 90.518 152.306 90.518 152.956 90.518ZM54.0174 100.878C53.0211 100.835 51.8515 101.871 51.8082 103.899C51.7649 107.957 51.7649 111.971 51.8082 116.029C51.8515 120.863 55.1004 124.187 59.9953 124.489C72.5576 125.223 85.1199 125.957 97.6389 126.734C100.238 126.906 101.494 125.396 100.758 122.935C99.155 117.237 97.5089 111.583 95.9062 105.928C95.4296 104.288 94.4333 103.554 92.7439 103.511C90.4047 103.424 88.1089 103.252 85.813 103.122C75.5899 102.345 65.2802 101.612 54.0174 100.878Z"
            fill="black" />
        <path
            d="M71.3018 35.5252C73.9875 28.6187 76.1101 21.7122 79.2723 15.2806C84.1673 5.30933 92.6576 0.17264 103.877 0.0863088C119.645 -0.0431876 135.456 0.0431433 151.224 0.0431433C151.744 0.0431433 152.307 0.0431433 152.913 0.0431433C152.913 10.4029 152.913 20.6331 152.913 31.0791C152.307 31.0791 151.7 31.0791 151.137 31.0791C139.181 31.1654 127.269 31.2518 115.313 31.4244C110.851 31.5108 106.346 31.8561 101.884 32.2014C100.888 32.2878 100.325 32.0288 100.065 31.1223C99.5452 29.3957 98.9821 27.6259 98.5489 25.8993C98.1591 24.3021 97.1627 23.2662 95.8632 23.3957C94.3904 23.5252 93.6973 24.4748 93.3074 25.8993C92.7443 28.0144 92.0512 30.0863 91.2715 32.1583C91.0549 32.6762 90.3185 33.2374 89.712 33.3237C83.9507 34.1439 78.1894 34.8777 72.3847 35.6115C72.1681 35.5683 71.8649 35.5252 71.3018 35.5252Z"
            fill="black" />
        <path
            d="M30.9722 139.597C20.6191 139.597 10.396 139.597 0.0429688 139.597C0.0429688 128.46 0.0429688 117.41 0.0429688 106.187C10.3094 106.187 20.5758 106.187 30.9722 106.187C30.9722 117.237 30.9722 128.331 30.9722 139.597ZM9.39971 124.144C13.0384 125.223 14.4679 128.029 15.5076 131.309C16.5039 127.942 18.02 125.18 21.6588 124.144C17.9767 123.065 16.5039 120.302 15.5076 116.978C14.4679 120.259 13.0384 123.065 9.39971 124.144ZM20.7491 116.288C22.5251 116.288 24.1712 116.288 25.7307 116.288C25.7307 114.518 25.7307 112.921 25.7307 111.324C23.998 111.324 22.3952 111.324 20.7491 111.324C20.7491 112.964 20.7491 114.561 20.7491 116.288Z"
            fill="black" />
        <path
            d="M152.957 108.691C152.957 113.871 152.957 118.878 152.957 124.058C152.48 124.101 152.047 124.144 151.571 124.144C143.21 124.144 134.806 124.187 126.446 124.144C118.432 124.101 110.852 117.842 109.292 110.029C109.205 109.64 109.205 109.209 109.162 108.734C123.76 108.691 138.315 108.691 152.957 108.691Z"
            fill="black" />
        <path
            d="M56.9635 79.8993C53.3681 79.2518 50.1192 78.6907 46.4805 78.0432C47.0869 75.3238 47.4768 72.6043 48.2998 70.0576C49.0796 67.6403 50.2925 65.3094 51.4187 63.0216C51.6353 62.5899 52.2851 62.1151 52.7183 62.1151C58.0031 62.1583 63.3313 61.9425 68.5728 62.5036C78.4493 63.5396 87.8494 72.3022 90.0586 81.9281C90.1019 82.1439 90.1019 82.3597 90.1019 82.8777C85.1637 82.6187 80.2687 82.4461 75.417 82.0576C70.5221 81.6691 65.6704 81.0216 60.6889 80.3741C65.7571 78.6475 68.3995 75.4532 66.9267 70.0576C66.0603 66.8202 62.9847 64.8777 59.5193 64.9209C56.2271 64.964 53.4114 67.0791 52.4151 70.2734C51.2888 73.8993 52.5883 76.7914 56.9635 79.8993ZM80.3553 75.0648C80.3986 72.3453 77.9728 69.8849 75.2438 69.8417C72.5147 69.7986 70.0456 72.2158 70.0023 74.9353C69.959 77.6547 72.3414 80.072 75.1138 80.1583C77.8429 80.2446 80.3553 77.7842 80.3553 75.0648Z"
            fill="black" />
        <path
            d="M49.2527 130.101C54.1043 134.331 59.8223 134.892 65.4104 135.799C68.6159 136.317 71.7781 136.748 75.157 137.266C75.157 140.806 75.2436 144.345 75.1136 147.885C75.0703 149.18 74.0307 150 72.6878 150C65.7136 150.043 58.7393 150.043 51.7651 150C50.3356 150 49.296 149.18 49.2527 147.755C49.2093 142.014 49.2527 136.273 49.2527 130.101Z"
            fill="black" />
        <path
            d="M0.129883 100.748C1.1262 99.4532 1.81929 98.2878 2.68566 97.3813C3.55202 96.4748 4.59166 95.7842 5.54466 95.0072C7.45066 93.4964 9.18339 91.4245 11.3493 90.7338C13.6019 90 16.2443 90.518 18.7567 90.5612C19.4065 90.5612 20.1429 90.8202 20.6627 91.1655C23.0885 93.0216 25.5577 94.8777 27.8535 96.9065C28.9798 97.8993 29.8029 99.2374 30.7559 100.403C30.6692 100.532 30.5393 100.662 30.4526 100.748C20.4895 100.748 10.5696 100.748 0.129883 100.748Z"
            fill="black" />
        <path
            d="M59.5628 31.0792C59.7794 35.6547 59.7794 35.6547 65.8439 36.4317C64.5444 38.1151 63.5047 39.7122 62.1619 41.0072C61.6854 41.482 60.5591 41.3525 59.736 41.3957C55.3176 41.4389 50.8991 41.3957 46.4807 41.3957C43.665 41.3957 41.6723 39.8417 41.4558 37.4676C41.1958 34.7914 42.7553 32.8058 45.6576 32.3741C49.0798 31.8993 52.5019 31.4676 55.8807 31.1223C57.0936 30.9928 58.2632 31.0792 59.5628 31.0792Z"
            fill="black" />
        <path
            d="M0 144.863C10.3531 144.863 20.6195 144.863 30.8426 144.863C31.1891 147.281 29.0665 149.914 26.4674 149.914C19.19 150 11.8692 150 4.59173 149.914C2.07928 149.914 0.129955 147.669 0 144.863Z"
            fill="black" />
        <path
            d="M102.447 41.4388C102.447 45.2806 99.4584 48.4748 95.863 48.4316C92.2676 48.3885 89.3652 45.1942 89.3652 41.3525C89.3652 37.5108 92.3542 34.3165 95.9496 34.3597C99.5883 34.4029 102.491 37.5539 102.447 41.4388Z"
            fill="black" />
        <path
            d="M62.2051 17.741C61.1222 14.2878 59.6493 11.3525 55.6641 10.3597C59.606 9.3669 61.1222 6.43164 62.1618 2.93524C63.2448 6.38848 64.7176 9.41006 68.7029 10.3597C64.8042 11.3957 63.2881 14.2878 62.2051 17.741Z"
            fill="black" />
        <path
            d="M13.0391 75.0648C14.7285 75.0648 16.3312 75.0648 18.0207 75.0648C18.0207 78.4748 18.0207 81.8417 18.0207 85.2518C16.3746 85.2518 14.7718 85.2518 13.0391 85.2518C13.0391 81.9281 13.0391 78.5612 13.0391 75.0648Z"
            fill="black" />
        <path
            d="M124.41 77.6978C124.41 80.2446 124.41 82.705 124.41 85.2518C122.72 85.2518 121.117 85.2518 119.385 85.2518C119.385 82.7482 119.385 80.2446 119.385 77.6978C121.031 77.6978 122.634 77.6978 124.41 77.6978Z"
            fill="black" />
        <path
            d="M129.738 85.2518C129.738 82.705 129.738 80.2877 129.738 77.6978C131.384 77.6978 133.03 77.6978 134.763 77.6978C134.763 80.2014 134.763 82.6618 134.763 85.2518C133.117 85.2518 131.514 85.2518 129.738 85.2518Z"
            fill="black" />
        <path
            d="M145.116 85.295C143.427 85.295 141.824 85.295 140.135 85.295C140.135 82.7914 140.135 80.331 140.135 77.741C141.738 77.741 143.34 77.741 145.116 77.741C145.116 80.1583 145.116 82.6619 145.116 85.295Z"
            fill="black" />
        <path
            d="M114.057 77.6547C114.057 80.1583 114.057 82.4892 114.057 84.8201C110.549 84.1727 107.516 81.1511 106.823 77.6547C109.162 77.6547 111.545 77.6547 114.057 77.6547Z"
            fill="black" />
        <path
            d="M106.347 72.3022C106.65 68.4173 109.249 66.8202 114.014 67.4245C114.014 69.0216 114.014 70.5756 114.014 72.3022C111.502 72.3022 108.946 72.3022 106.347 72.3022Z"
            fill="black" />
        <path
            d="M124.323 72.3885C122.634 72.3885 121.074 72.3885 119.385 72.3885C119.385 70.7482 119.385 69.1079 119.385 67.3813C120.988 67.3813 122.634 67.3813 124.323 67.3813C124.323 69.0647 124.323 70.705 124.323 72.3885Z"
            fill="black" />
        <path
            d="M129.738 67.3381C131.428 67.3381 133.03 67.3381 134.72 67.3381C134.72 68.9784 134.72 70.6187 134.72 72.3453C133.074 72.3453 131.428 72.3453 129.738 72.3453C129.738 70.705 129.738 69.1079 129.738 67.3381Z"
            fill="black" />
        <path
            d="M140.091 72.3453C140.091 70.6187 140.091 69.0647 140.091 67.4244C141.737 67.4244 143.383 67.4244 145.116 67.4244C145.116 69.0216 145.116 70.6187 145.116 72.3453C143.47 72.3453 141.867 72.3453 140.091 72.3453Z"
            fill="black" />
        <path
            d="M59.649 75.0216C58.1762 75.0647 57.0933 73.9856 57.0066 72.5611C56.92 71.0504 58.0463 69.8849 59.5624 69.8417C61.0785 69.7986 62.2048 70.9209 62.2048 72.4316C62.2048 73.8993 61.1219 74.9784 59.649 75.0216Z"
            fill="black" />
        <path
            d="M150.531 77.6115C151.398 77.6115 152.091 77.6115 153.044 77.6115C153.044 78.9065 153.044 80.1583 153.044 81.4101C153.044 82.6187 153.044 83.8705 153.044 85.2086C152.177 85.2086 151.398 85.2086 150.531 85.2086C150.531 82.7482 150.531 80.2446 150.531 77.6115Z"
            fill="black" />
        <path
            d="M150.531 67.3381C151.354 67.3381 152.091 67.3381 152.914 67.3381C152.914 69.0216 152.914 70.6619 152.914 72.3453C152.134 72.3453 151.398 72.3453 150.531 72.3453C150.531 70.7482 150.531 69.1079 150.531 67.3381Z"
            fill="black" />
        <path
            d="M57.0072 106.187C62.2487 106.489 67.3169 106.791 72.3852 107.137C78.1032 107.525 83.8212 108 89.4959 108.259C90.9687 108.345 91.5318 108.82 91.8784 110.158C92.8314 113.784 93.9143 117.367 94.954 121.122C94.5641 121.165 94.2609 121.252 94.001 121.252C82.5649 120.604 71.1289 119.957 59.6929 119.266C58.1768 119.18 57.0072 118.058 56.9639 116.59C57.0072 113.18 57.0072 109.813 57.0072 106.187Z"
            fill="black" />
    </g>
    <defs>
        <clipPath id="clip0_18_240">
            <rect width="153" height="150" fill="white" />
        </clipPath>
    </defs>
</svg>
    