<svg width="139" height="152" viewBox="0 0 139 152" fill="none" xmlns="http://www.w3.org/2000/svg">
    <g clip-path="url(#clip0_18_43)">
        <path
            d="M90.6364 80.8814C93.226 81.0642 95.7791 81.1739 98.3323 81.4664C100.812 81.759 103.329 82.088 105.773 82.6365C109.457 83.4409 112.447 85.5251 114.964 88.3041C118.575 92.2896 120.836 97.0796 122.441 102.162C122.915 103.625 123.353 105.16 123.462 106.696C123.681 110.133 122.587 113.058 119.779 115.252C116.642 117.666 113.031 118.982 109.311 120.042C104.606 121.432 99.7912 122.236 94.9403 122.858C88.1197 123.735 81.2627 124.284 74.3693 124.284C68.0594 124.284 61.7495 124.211 55.4396 123.955C49.9321 123.735 44.4246 123.187 38.9901 122.163C35.2698 121.468 31.586 120.591 27.9387 119.567C24.8749 118.689 21.9206 117.446 19.3674 115.472C15.7201 112.693 14.6624 108.963 15.7201 104.722C16.9967 99.5295 19.0757 94.6298 22.2853 90.3151C25.1667 86.4393 28.7776 83.6603 33.5191 82.5268C37.057 81.6858 40.7044 81.4299 44.3152 81.2471C45.4459 81.1739 46.5766 80.9911 47.7072 80.8814C47.9261 80.8814 48.2543 80.9911 48.3273 81.1374C49.1297 82.8193 50.4427 83.9529 51.9746 84.9035C54.8925 86.7318 58.1022 87.6459 61.4577 88.2309C66.491 89.1085 71.5244 89.1451 76.5577 88.3772C79.9497 87.8653 83.2323 86.9512 86.2596 85.2326C88.4115 84.026 89.6151 82.8559 90.6364 80.8814Z"
            fill="black" />
        <path
            d="M90.6363 65.4144C89.6515 66.7673 88.7761 68.0837 87.8278 69.3269C85.3841 72.508 82.5756 75.2504 79.1107 77.3346C74.515 80.0769 69.6641 80.9545 64.5213 79.3822C60.9105 78.3218 57.8832 76.2376 55.1842 73.6781C50.4426 69.1806 47.0871 63.6959 44.6798 57.6627C44.5704 57.3702 44.5704 56.968 44.7163 56.6755C45.6646 54.8472 45.8834 52.9093 45.847 50.8982C45.774 47.388 45.8105 43.8778 45.847 40.4041C45.8834 37.6252 44.9351 35.2485 43.002 33.2374C42.8197 33.0546 42.7103 32.6889 42.7467 32.433C44.1692 23.7305 48.6919 17.0757 56.3878 12.7611C63.2448 8.92179 70.5394 8.22706 77.9435 10.7866C87.4996 14.0774 93.4082 20.8785 95.8155 30.7144C95.9614 31.2629 96.0708 31.8479 96.1073 32.433C96.1073 32.7255 95.9979 33.0911 95.8155 33.274C93.9189 35.285 93.007 37.6252 93.0435 40.3675C93.08 44.2434 93.0435 48.1193 93.08 51.9952C93.08 52.3974 92.9341 52.5802 92.6058 52.7265C90.1256 53.9331 87.4996 54.701 84.764 55.0666C84.5087 55.1032 84.144 55.03 83.9252 54.8838C82.6851 54.0428 81.2991 53.7137 79.8401 53.7137C77.9435 53.7137 76.0469 53.6406 74.1868 53.8234C68.8617 54.3353 65.9803 60.8438 69.0805 65.1951C70.6124 67.389 72.7278 68.4493 75.3904 68.4493C76.7764 68.4493 78.1988 68.4128 79.5848 68.4493C81.445 68.4859 83.0863 67.9374 84.5817 66.8039C84.9829 66.5114 85.4571 66.292 85.9312 66.2189C87.4266 65.9629 88.922 65.707 90.6363 65.4144Z"
            fill="black" />
        <path
            d="M99.6087 57.2605C94.9036 60.5879 89.5785 62.1602 83.8887 62.7087C83.451 62.7452 83.0862 62.8549 82.7945 63.2937C82.065 64.3175 80.9708 64.7563 79.7307 64.7563C78.1988 64.7563 76.7034 64.7928 75.1715 64.7563C73.3114 64.7197 71.8525 63.3668 71.5971 61.5386C71.3783 59.9297 72.4725 58.2112 74.0409 57.6993C74.1867 57.6627 74.3691 57.5896 74.515 57.5896C76.521 57.5896 78.5635 57.553 80.5696 57.5896C81.5179 57.6261 82.1744 58.2112 82.8309 58.8693C82.9768 59.0156 83.2321 59.1253 83.4145 59.1253C87.9372 58.6134 92.2775 57.4799 96.2167 55.1032C96.3625 54.9935 96.5449 54.8838 96.6908 54.8106C97.1285 54.5547 97.3473 54.2987 97.092 53.7503C96.9097 53.3846 96.9097 52.9458 96.9097 52.5071C96.8732 48.4849 96.9097 44.4628 96.8732 40.4407C96.8367 38.0274 97.8215 36.2357 99.8275 34.9194C100.01 34.8097 100.156 34.4806 100.156 34.2612C99.9734 31.1166 99.2804 28.0818 98.1497 25.1566C96.5814 21.2076 94.32 17.6973 91.3292 14.699C88.1196 11.4448 84.3628 9.03148 80.0954 7.4592C76.3751 6.06973 72.5454 5.44813 68.6063 5.59439C62.5882 5.81378 57.0807 7.60546 52.1204 11.0425C47.3423 14.3699 43.768 18.6846 41.3972 24.0231C39.9747 27.2408 39.1358 30.6413 38.8805 34.1515C38.8441 34.5172 38.8805 34.7731 39.2817 35.0291C41.1054 36.1626 42.1631 37.808 42.1631 40.0019C42.1996 43.4756 42.1631 46.9492 42.1267 50.4594C42.1267 51.081 42.1996 51.7392 42.1631 52.3608C41.9808 55.7979 39.3912 58.2477 35.9991 58.2112C32.4977 58.1746 29.9081 55.6516 29.8716 52.178C29.7987 48.1558 29.7987 44.1337 29.8716 40.1116C29.9081 37.8811 30.9658 36.1626 32.8624 34.9559C33.0813 34.8463 33.2636 34.5172 33.3001 34.2612C33.7743 27.2042 35.9991 20.7688 40.1936 15.0281C45.9199 7.23981 53.5428 2.37668 63.0259 0.621572C70.2841 -0.731327 77.3599 0.0730994 84.144 3.10798C89.5785 5.52126 94.1741 9.06805 97.8944 13.7118C101.761 18.7212 104.314 24.3887 105.262 30.751C105.444 31.9211 105.517 33.1277 105.7 34.2978C105.736 34.5172 105.882 34.8097 106.064 34.9559C108.143 36.1992 109.128 38.064 109.128 40.4772C109.128 44.2434 109.128 48.0096 109.128 51.7758C109.128 56.8948 104.277 59.7835 99.7911 57.4068C99.7181 57.3336 99.6816 57.2971 99.6087 57.2605Z"
            fill="black" />
        <path
            d="M120.107 150.94C120.362 149.331 120.654 147.539 120.982 145.747C121.201 144.577 120.8 143.627 119.997 142.822C118.794 141.579 117.517 140.409 116.314 139.202C116.095 138.983 115.876 138.544 115.949 138.325C116.022 138.105 116.46 137.886 116.751 137.813C118.429 137.52 120.143 137.301 121.858 137.045C122.952 136.899 123.791 136.35 124.301 135.363C125.14 133.754 125.906 132.109 126.745 130.5C127.183 129.659 127.693 129.622 128.131 130.463C128.897 131.926 129.626 133.425 130.356 134.888C130.939 136.131 131.815 136.862 133.201 137.045C134.769 137.228 136.337 137.484 137.906 137.74C138.052 137.776 138.161 137.813 138.307 137.813C139.073 137.996 139.255 138.471 138.708 139.056C137.906 139.897 137.067 140.702 136.228 141.506C135.681 142.054 135.061 142.603 134.55 143.188C133.967 143.883 133.748 144.724 133.93 145.601C134.222 147.283 134.514 148.965 134.806 150.647C134.842 150.793 134.842 150.94 134.842 151.049C134.879 151.854 134.514 152.146 133.784 151.781C132.763 151.269 131.742 150.72 130.757 150.208C130.137 149.879 129.553 149.514 128.897 149.221C127.876 148.746 126.891 148.782 125.87 149.331C124.338 150.135 122.842 150.94 121.31 151.744C120.472 152.219 120.07 151.963 120.107 150.94Z"
            fill="black" />
        <path
            d="M4.12171 150.976C4.37703 149.55 4.55939 148.014 4.92413 146.479C5.28886 144.76 4.88766 143.444 3.57461 142.31C2.51689 141.396 1.49563 140.372 0.510851 139.349C0.255538 139.093 0.000223938 138.617 0.0366973 138.288C0.0731707 138.069 0.620271 137.849 0.985005 137.776C2.62631 137.484 4.23113 137.264 5.87244 137.045C7.07606 136.899 7.91494 136.241 8.46205 135.18C9.15504 133.754 9.84803 132.328 10.541 130.902C10.614 130.756 10.6869 130.573 10.7963 130.463C11.0152 130.244 11.2705 129.915 11.4893 129.915C11.7082 129.915 12.0364 130.244 12.1823 130.5C13.0212 132.109 13.7872 133.718 14.5896 135.29C15.1002 136.277 15.9391 136.862 17.0333 137.008C18.6746 137.228 20.3524 137.484 21.9937 137.74C22.3584 137.813 22.8326 137.996 22.942 138.252C23.0149 138.508 22.7231 138.946 22.4678 139.202C21.4101 140.299 20.3159 141.396 19.1852 142.457C18.0545 143.48 17.6533 144.65 17.9816 146.15C18.3099 147.649 18.5287 149.185 18.784 150.684C18.8205 151.049 18.784 151.598 18.5652 151.744C18.3463 151.89 17.7992 151.781 17.5074 151.598C16.0485 150.867 14.5896 150.062 13.1306 149.294C12.0729 148.709 10.9787 148.709 9.92098 149.294C8.49852 150.026 7.07606 150.793 5.6536 151.561C5.47123 151.634 5.32534 151.744 5.14297 151.781C4.37703 152.146 4.08524 151.89 4.12171 150.976Z"
            fill="black" />
        <path
            d="M62.7707 151.196C62.9896 149.843 63.2449 148.38 63.5002 146.954C63.5731 146.479 63.6825 146.04 63.719 145.565C63.8284 144.468 63.4637 143.554 62.6613 142.786C61.4577 141.579 60.2176 140.409 59.0504 139.202C58.8316 138.983 58.6127 138.581 58.6857 138.325C58.7586 138.105 59.1963 137.886 59.4881 137.813C61.1294 137.52 62.7342 137.264 64.3755 137.082C65.7615 136.935 66.6734 136.204 67.2569 134.961C67.9499 133.571 68.6065 132.145 69.3359 130.756C69.5183 130.427 69.883 130.171 70.1383 129.878C70.4301 130.171 70.7949 130.39 70.9772 130.719C71.7067 132.109 72.3997 133.498 73.0562 134.924C73.6398 136.167 74.5151 136.899 75.9011 137.082C77.4695 137.264 79.0378 137.52 80.6062 137.776C80.7521 137.813 80.9345 137.813 81.0803 137.886C81.7733 138.069 81.9557 138.508 81.4451 139.056C80.6791 139.897 79.8403 140.665 79.0014 141.469C78.7096 141.762 78.4543 142.054 78.1625 142.31C76.6671 143.444 76.3388 144.906 76.74 146.662C77.0683 148.088 77.2871 149.514 77.506 150.94C77.5424 151.232 77.506 151.707 77.2871 151.89C77.1047 152.037 76.5941 151.963 76.3388 151.854C74.8434 151.122 73.3845 150.355 71.9255 149.55C70.7584 148.892 69.5912 148.855 68.4241 149.514C66.9652 150.318 65.4697 151.086 63.9743 151.854C63.2449 152.183 62.8072 151.963 62.7707 151.196Z"
            fill="black" />
        <path
            d="M40.1937 148.855C38.9171 148.929 38.0053 149.733 36.9475 150.208C35.9992 150.684 35.0509 151.232 34.1026 151.707C33.7743 151.854 33.3002 151.963 33.0084 151.817C32.826 151.707 32.7531 151.159 32.826 150.83C33.0449 149.294 33.2637 147.722 33.592 146.223C33.8838 144.797 33.5555 143.627 32.4613 142.639C31.2577 141.506 30.0905 140.336 28.9234 139.166C28.741 138.983 28.5951 138.617 28.6316 138.398C28.7045 138.178 29.0328 137.959 29.2881 137.923C31.0388 137.63 32.7896 137.374 34.5403 137.118C35.6345 136.972 36.5099 136.423 37.0205 135.4C37.8229 133.827 38.5888 132.218 39.3912 130.646C39.5371 130.354 39.8289 130.025 40.0842 129.988C40.3396 129.988 40.6678 130.317 40.8137 130.573C41.5796 131.999 42.3091 133.462 43.0021 134.961C43.5857 136.204 44.461 136.935 45.847 137.118C47.3789 137.301 48.9473 137.557 50.4791 137.776C50.6615 137.813 50.8439 137.849 51.0262 137.886C51.7192 138.069 51.9016 138.544 51.391 139.056C50.625 139.897 49.7862 140.665 48.9473 141.469C48.4366 141.981 47.8895 142.457 47.4154 143.005C46.6494 143.809 46.3941 144.797 46.5765 145.93C46.8683 147.612 47.1601 149.331 47.4154 151.013C47.4519 151.305 47.3789 151.781 47.1965 151.89C46.9412 152.037 46.5036 151.963 46.2482 151.817C44.7164 151.049 43.2574 150.245 41.7255 149.477C41.2514 149.185 40.7043 149.038 40.1937 148.855Z"
            fill="black" />
        <path
            d="M106.138 150.94C106.174 151.927 105.773 152.219 105.043 151.817C103.548 151.049 102.089 150.281 100.594 149.477C99.4265 148.855 98.2958 148.819 97.1287 149.44C95.7062 150.208 94.2473 150.976 92.7883 151.707C92.4601 151.89 92.0224 151.817 91.6212 151.89C91.5847 151.488 91.4753 151.086 91.5118 150.72C91.7671 149.002 92.0954 147.283 92.3507 145.528C92.4966 144.504 92.1318 143.59 91.3659 142.859C90.3082 141.798 89.214 140.775 88.1562 139.751C87.9739 139.605 87.7915 139.458 87.6821 139.239C87.4997 138.946 87.2079 138.544 87.3173 138.288C87.4268 138.032 87.8644 137.849 88.2292 137.776C89.8705 137.484 91.5483 137.264 93.1896 137.045C94.3567 136.899 95.2321 136.277 95.7427 135.217C96.4357 133.864 97.0922 132.474 97.7852 131.085C97.8946 130.866 97.9676 130.646 98.1135 130.463C98.3323 130.244 98.5876 129.915 98.8064 129.915C99.0253 129.915 99.3536 130.244 99.463 130.5C100.156 131.853 100.849 133.169 101.469 134.559C102.162 136.167 103.329 137.008 105.116 137.155C106.539 137.264 107.925 137.52 109.311 137.776C109.676 137.849 110.077 138.032 110.259 138.325C110.369 138.471 110.04 138.983 109.785 139.202C108.691 140.336 107.56 141.469 106.393 142.566C105.335 143.59 105.007 144.76 105.262 146.186C105.663 147.832 105.882 149.477 106.138 150.94Z"
            fill="black" />
    </g>
    <defs>
        <clipPath id="clip0_18_43">
            <rect width="139" height="152" fill="white" />
        </clipPath>
    </defs>
</svg>
    