<svg width="122" height="122" viewBox="0 0 122 122" fill="none" xmlns="http://www.w3.org/2000/svg">
    <g clip-path="url(#clip0_18_48)">
        <path
            d="M88.7051 5.52539C94.954 11.2464 100.959 16.6252 106.768 22.1995C107.452 22.8841 107.11 24.6933 107.208 26.0136C107.256 26.6981 106.915 27.7739 107.159 27.9206C107.745 28.3118 108.819 28.5074 109.405 28.214C111.992 26.9915 113.945 27.9206 115.946 29.632C123.318 36.0376 123.416 36.8689 116.776 44.1057C114.482 46.5995 112.285 49.1911 109.99 51.636C107.256 54.521 105.06 54.6188 102.033 52.125C101.008 51.2937 100.08 50.3647 99.1525 49.4845C95.4422 46.1106 95.2469 44.8392 98.0296 39.9983C95.1492 38.238 90.7067 42.1987 89.1444 37.2112C79.527 47.8709 70.3977 57.9438 61.3173 68.1146C60.7803 68.7013 60.3897 69.6304 60.3897 70.4128C60.3409 75.2047 57.8023 77.7963 53.0668 77.6007C52.2369 77.5518 51.2605 77.2095 50.6258 76.7206C47.6967 74.2757 45.0604 71.4885 41.9848 69.1903C39.5438 67.3811 39.2509 64.8873 40.0808 62.6869C41.0084 60.1931 42.7171 57.9438 45.988 57.7482C47.0132 57.6993 48.2825 57.1126 49.0148 56.3302C57.607 46.7462 66.3457 37.309 74.6939 27.5294C76.2561 25.7202 76.1585 22.4929 76.8907 19.9013C77.2813 18.5811 77.6719 17.0164 78.5506 16.0384C81.7239 12.5178 85.1412 9.19273 88.7051 5.52539ZM82.505 34.913C81.7239 34.0328 81.0892 32.6148 80.4057 32.6148C79.1853 32.6148 77.623 33.1037 76.7931 33.935C68.7867 42.541 60.9268 51.2448 53.018 59.8997C51.6022 61.4645 50.8211 63.0781 52.6274 64.6917C54.3361 66.1587 55.8007 65.034 57.07 63.616C64.93 55.0589 72.7411 46.4528 80.5522 37.7979C81.2845 37.0645 81.7239 36.0376 82.505 34.913Z"
            fill="black" />
        <path
            d="M53.8479 37.9447C48.3802 43.0301 43.4494 47.6265 38.0304 52.6629C36.4194 50.8537 34.906 49.1423 33.4414 47.4309C30.8051 44.3503 27.5342 43.3724 23.531 43.7635C12.6931 44.8393 3.17327 38.6782 0.488193 28.6541C-0.2441 25.8669 -1.94088e-06 22.7864 0.195276 19.9014C0.390554 17.6032 2.73389 17.0653 4.97959 18.7279C8.10404 21.075 11.082 23.6665 14.1088 26.1114C18.2585 29.4854 19.2837 29.3876 22.6034 25.2802C28.12 18.3856 28.12 18.3856 21.383 12.909C19.2837 11.1976 16.9892 9.63288 15.0852 7.72587C14.06 6.69901 12.9372 4.8409 13.2789 3.71625C13.5718 2.5916 15.427 1.36915 16.8427 1.07577C28.95 -1.8092 41.6919 6.9924 42.3265 19.4124C42.6683 25.7203 44.914 30.17 49.503 33.984C50.8699 35.1575 52.1881 36.4289 53.8479 37.9447ZM40.3249 35.9888C39.8367 36.0866 39.3974 36.1844 38.9092 36.2333C38.6651 37.4068 37.7863 39.0205 38.2745 39.6561C39.4462 41.2697 41.106 42.5411 42.7659 43.7635C43.2053 44.1058 44.3281 43.9102 44.8163 43.5679C45.3045 43.2257 45.8415 41.9543 45.6463 41.7098C43.9864 39.705 42.1313 37.8958 40.3249 35.9888ZM38.3722 30.4144C38.7627 30.3166 39.1044 30.2677 39.495 30.17C39.3485 28.9964 39.2021 27.8229 39.0556 26.6982C37.9816 26.8938 36.8587 27.0405 34.906 27.3828C36.6635 28.8986 37.4934 29.681 38.3722 30.4144Z"
            fill="black" />
        <path
            d="M49.5028 84.0064C46.0366 88.4072 42.8633 92.808 39.2995 96.8665C33.0018 104.103 26.5576 111.145 20.0158 118.186C15.7685 122.733 9.3243 123.222 4.63763 119.653C0.0974086 116.23 -1.31836 110.069 1.36672 105.032C1.75727 104.25 2.24547 103.517 2.8313 102.881C10.7889 94.0793 18.6 85.1799 26.7529 76.5739C33.3435 69.6304 33.49 69.826 40.5688 76.085C43.4003 78.5787 46.2319 81.1214 49.5028 84.0064Z"
            fill="black" />
        <path
            d="M63.0259 76.7695C67.4196 71.5375 71.8134 66.3054 76.4024 60.8289C87.0939 71.5864 97.5901 82.1483 108.086 92.7102C111.552 96.182 115.019 99.6048 118.436 103.125C122.83 107.624 123.123 114.03 119.266 118.088C115.067 122.489 108.574 122.538 103.888 117.893C90.5113 104.641 77.2324 91.2922 63.9046 77.9431C63.6605 77.6986 63.4653 77.3074 63.0259 76.7695ZM71.2764 73.5912C80.7474 83.0285 89.9743 92.319 99.2988 101.463C100.129 102.245 102.179 103.028 102.765 102.588C104.571 101.121 102.814 99.9471 101.837 98.9202C93.5381 90.5587 85.1899 82.295 76.9394 73.9335C75.9142 72.9066 75.1331 71.5864 74.1079 70.2661C72.7898 71.782 72.1551 72.5154 71.2764 73.5912ZM117.557 112.074C117.46 109.531 115.067 107.38 112.578 107.526C110.137 107.722 108.086 109.922 108.184 112.318C108.282 114.861 110.576 116.915 113.164 116.768C115.653 116.67 117.655 114.47 117.557 112.074Z"
            fill="black" />
        <path
            d="M57.4604 5.72107C61.1707 -0.342252 75.1331 -1.76029 82.5537 2.24933C79.0387 5.81887 75.426 9.43731 71.7646 13.1535C67.4685 11.8333 62.5865 10.3664 57.7045 8.89943C57.7534 8.60604 57.851 8.31266 57.8998 7.97037C60.292 8.16596 62.6841 8.41045 65.0763 8.60604C65.1251 8.41045 65.1739 8.26376 65.2228 8.06817C62.733 7.3836 60.1943 6.60123 57.4604 5.72107Z"
            fill="black" />
        <path
            d="M35.4429 69.5326C36.5657 68.7503 37.3468 68.2124 38.1768 67.6256C42.1311 71.1463 45.9391 74.5202 49.747 77.943C51.651 79.6545 51.651 79.6545 49.6494 82.1972C45.0115 78.0408 40.4225 73.9334 35.4429 69.5326Z"
            fill="black" />
        <path
            d="M57.119 40.3407C51.7976 45.4261 47.355 49.7291 42.766 53.8854C42.1314 54.4722 40.7644 54.1788 39.788 54.3255C39.6416 53.9343 39.4951 53.592 39.3975 53.2008C44.133 48.8 48.8196 44.3503 53.6039 40.0473C53.9945 39.6072 55.3126 40.1451 57.119 40.3407Z"
            fill="black" />
        <path
            d="M87.2892 4.88976C83.6766 8.4104 80.4057 11.7354 76.9883 14.9138C76.4025 15.4517 75.3773 15.4517 74.4497 15.3539C79.771 7.82362 84.8483 3.66731 87.2892 4.88976Z"
            fill="black" />
    </g>
    <defs>
        <clipPath id="clip0_18_48">
            <rect width="122" height="122" fill="white" />
        </clipPath>
    </defs>
</svg>
    