<svg width="116" height="140" viewBox="0 0 116 140" fill="none" xmlns="http://www.w3.org/2000/svg">
    <g clip-path="url(#clip0_18_77)">
        <path
            d="M64.3095 0C65.8145 0.173625 67.2616 0.405126 68.7666 0.520876C80.1698 1.67838 91.1678 4.28276 101.298 9.89665C106.218 12.6168 110.675 15.9735 113.627 21.0087C117.1 26.9119 116.463 31.1947 112.411 36.8086C108.707 41.9595 103.497 45.2005 97.8823 47.8628C89.8364 51.6825 81.3275 53.8239 72.5291 54.9814C64.078 56.1389 55.6269 56.3125 47.1758 55.4444C35.7147 54.2869 24.6588 51.6246 14.5869 45.9529C9.72466 43.2327 5.38334 39.876 2.48913 34.9566C-0.983925 29.1691 -0.405083 24.8863 3.58893 19.2724C7.3514 13.9479 12.7925 10.649 18.5231 7.9289C26.8584 4.05126 35.7147 1.85201 44.8604 0.810252C47.1758 0.520876 49.4332 0.289376 51.7486 0C55.9163 0 60.1418 0 64.3095 0Z"
            fill="black" />
        <path
            d="M0.0579658 68.9293C1.042 69.8553 1.91026 70.6656 2.72064 71.4758C9.03002 77.3791 16.6129 81.0252 24.7167 83.7454C31.8943 86.1182 39.3035 87.5072 46.8284 88.2017C60.9522 89.475 74.9023 88.549 88.6208 84.6135C97.7087 82.0091 106.218 78.1315 113.222 71.5916C114.09 70.7813 114.958 69.9711 115.884 69.1608C115.884 69.5081 115.942 69.8553 115.942 70.2026C115.942 74.1381 115.884 78.0157 115.942 81.9512C116.058 86.9864 114.032 91.1534 110.733 94.7416C106.102 99.7768 100.256 103.018 93.9462 105.449C80.2855 110.773 66.1039 112.509 51.517 111.699C41.4452 111.12 31.6628 109.268 22.2855 105.622C15.9761 103.134 10.0719 99.9504 5.32543 94.9153C1.85238 91.2113 -0.231455 86.9864 -0.0578027 81.7776C0.0579658 77.9 -0.0578027 74.0223 -0.0578027 70.1447C0.0579658 69.7396 0.0579658 69.3923 0.0579658 68.9293Z"
            fill="black" />
        <path
            d="M0.0578896 97.6932C1.96807 99.4295 3.58883 101.108 5.44112 102.555C12.0978 107.879 19.8543 111.178 28.016 113.493C39.8822 116.908 52.0958 117.892 64.3673 117.313C76.4651 116.734 88.2156 114.477 99.2715 109.442C105.291 106.722 110.79 103.249 115.248 98.272C115.363 98.0984 115.595 97.9826 115.884 97.6932C115.942 98.272 115.942 98.6192 115.942 99.0244C115.942 102.728 115.884 106.432 115.942 110.079C116.116 115.229 113.974 119.454 110.559 123.1C105.87 128.078 100.024 131.261 93.7146 133.749C84.5689 137.396 74.9601 139.19 65.1777 139.826C52.0958 140.694 39.2455 139.421 26.7425 135.428C19.7964 133.229 13.2555 130.219 7.64072 125.415C2.72056 121.191 -0.463069 116.155 -0.115763 109.326C0.0578896 105.969 -0.0578789 102.555 -0.0578789 99.198C0.0578896 98.6771 0.0578896 98.272 0.0578896 97.6932Z"
            fill="black" />
        <path
            d="M115.827 41.8438C115.827 46.6474 115.827 51.2195 115.827 55.8495C115.827 56.3704 115.711 56.9492 115.537 57.47C114.322 62.1579 111.369 65.6883 107.723 68.6978C101.876 73.5593 95.0461 76.511 87.8685 78.7102C75.7128 82.4721 63.2677 83.5717 50.6489 82.7615C40.8086 82.1249 31.1998 80.2729 21.9962 76.5688C15.8026 74.0802 10.0142 70.8971 5.32554 65.9777C1.96826 62.3316 -0.115576 58.2224 0.000192297 53.0715C0.115961 49.3675 0.000192297 45.7214 0.000192297 41.8438C0.289613 42.0174 0.463266 42.0174 0.52115 42.1331C6.13592 48.3836 13.1978 52.2613 20.8385 55.2129C29.116 58.396 37.7407 60.1902 46.5391 61.0004C53.3695 61.6371 60.1998 61.7528 67.0301 61.2319C80.5172 60.1902 93.4832 57.2964 105.349 50.3514C108.996 48.21 112.296 45.6635 115.132 42.5383C115.306 42.3067 115.537 42.1331 115.827 41.8438Z"
            fill="black" />
    </g>
    <defs>
        <clipPath id="clip0_18_77">
            <rect width="116" height="140" fill="white" />
        </clipPath>
    </defs>
</svg>
    