<svg width="127" height="142" viewBox="0 0 127 142" fill="none" xmlns="http://www.w3.org/2000/svg">
    <g clip-path="url(#clip0_18_29)">
        <path
            d="M46.4871 91.3113C47.055 91.717 47.5418 92.0415 47.7852 92.2037C43.8098 92.9745 39.6722 93.7452 35.7374 94.4753C37.2383 93.0962 38.942 91.5547 40.6052 90.0132C39.1043 88.5529 38.0496 87.4982 36.8327 86.3218C35.4129 87.8633 33.8309 89.6076 32.2894 91.3519C25.434 85.2266 19.3898 70.7855 19.4304 61.0094C21.7831 61.0094 24.0953 61.0094 26.5292 61.0094C26.5292 59.3463 26.5292 57.8454 26.5292 56.1417C24.2576 56.1417 21.9048 56.1417 19.5521 56.1417C19.5115 47.3797 23.6085 34.6829 31.9649 25.9615C33.5469 27.6652 35.0884 29.3283 36.5893 30.9509C37.8873 29.6123 38.942 28.5171 39.9967 27.3812C38.5364 26.002 36.8732 24.42 35.2506 22.8785C40.0373 16.4288 56.3037 9.61387 65.4714 9.97895C65.4714 12.2911 65.4714 14.6033 65.4714 16.9967C67.094 16.9967 68.5949 16.9967 70.2986 16.9967C70.2986 14.6845 70.2986 12.3317 70.2986 10.0195C79.1011 9.97895 91.7168 14.1166 100.438 22.4323C98.7751 24.0144 97.0713 25.5964 95.4893 27.0567C96.8279 28.3548 97.8826 29.4095 98.9779 30.4642C100.357 29.0038 101.899 27.3407 103.44 25.7181C109.809 30.383 116.624 46.6089 116.34 55.9794C114.027 55.9794 111.715 55.9794 109.322 55.9794C109.322 57.6426 109.322 59.184 109.322 60.8472C111.675 60.8472 113.987 60.8472 116.258 60.8472C117.354 68.3922 110.498 85.0643 103.805 91.1085C102.264 89.4048 100.682 87.701 99.2213 86.0784C97.9638 87.3765 96.9091 88.4718 95.8138 89.6076C97.2742 91.0274 98.9779 92.6499 101.006 94.597C97.8826 96.747 95.1648 98.6535 92.4064 100.479C92.1224 100.682 91.4328 100.52 91.1083 100.317C88.2688 98.2479 85.0642 97.4366 81.5756 97.396C76.8701 97.3555 72.1646 97.2338 67.4591 97.0715C66.3638 97.0309 65.2686 96.747 64.2139 96.463C59.914 95.165 55.6547 93.8263 51.3143 92.5283C51.7199 91.8386 52.2067 90.9462 52.6935 90.0944C57.115 82.3465 61.496 74.6392 65.9176 66.8913C66.3638 66.1206 66.7289 65.7149 67.7836 65.7555C71.0693 65.9178 74.1117 63.6056 74.9635 60.5226C75.856 57.2369 74.5173 53.87 71.5155 52.2474C70.6637 51.8012 70.4203 51.3144 70.4203 50.3815C70.4609 43.526 70.4203 36.6706 70.4203 29.8557C70.4203 29.7746 70.3797 29.6529 70.3797 29.45C68.8788 29.45 67.3374 29.45 65.5931 29.45C65.5931 29.9368 65.5931 30.4642 65.5931 31.0321C65.5931 37.5224 65.5931 44.0128 65.5525 50.5032C65.5525 50.9899 65.3091 51.7201 64.944 51.9635C60.3602 54.9247 59.5489 58.4944 62.5102 63.3622C57.115 72.6109 51.8011 81.9408 46.4871 91.3113Z"
            fill="black" />
        <path
            d="M28.5577 132.363C28.1926 127.617 27.8681 123.073 27.5436 118.53C27.3002 115.366 27.0974 112.162 26.9351 108.998C26.8945 108.592 26.9351 107.983 27.1785 107.74C30.7076 104.008 34.2773 100.398 39.3479 98.7346C45.3109 96.7875 51.274 97.0715 57.0341 99.262C63.2 101.615 69.4875 102.588 76.0185 102.426C79.0202 102.345 82.1437 102.264 85.0644 102.791C88.5935 103.44 90.7435 105.996 91.9199 109.647C83.888 109.647 75.9779 109.647 68.0272 109.647C68.0272 111.31 68.0272 112.811 68.0272 114.555C68.4734 114.555 68.9602 114.555 69.447 114.555C77.5599 114.555 85.6323 114.595 93.7453 114.514C94.7999 114.514 96.0575 114.028 96.8688 113.378C104.008 107.781 111.026 102.061 118.125 96.463C119.098 95.6923 120.559 95.2866 121.816 95.1649C123.804 94.9621 125.264 96.0979 125.954 97.8422C126.643 99.627 126.197 101.331 124.574 102.751C119.261 107.375 113.906 111.918 108.673 116.624C102.953 121.735 96.7471 125.954 89.486 128.55C79.9532 131.957 70.2177 132.484 60.3605 130.578C49.9353 128.55 39.6724 128.753 29.5718 132.16C29.2878 132.201 29.0039 132.241 28.5577 132.363Z"
            fill="black" />
        <path
            d="M96.4226 107.578C95.9358 106.523 95.4896 105.631 95.0434 104.698C109.322 95.7328 118.206 83.1172 120.721 66.3639C122.952 51.4767 119.382 37.8469 110.215 25.9209C91.8388 2.02822 58.4945 -1.58205 35.5349 15.9825C27.1785 22.3917 21.1344 30.6264 17.6052 40.5647C14.0355 50.5437 13.5082 60.7254 15.9826 71.0695C18.4571 81.3323 23.5683 90.0538 31.1944 97.396C29.8964 98.4507 28.72 99.4648 27.4219 100.519C23.6494 96.9498 20.4853 92.8933 17.8486 88.4312C11.7639 78.1683 8.76211 67.013 9.73567 55.1681C11.7639 30.8698 24.055 13.3458 46.609 4.25928C78.0467 -8.4375 113.014 8.27519 123.439 40.6053C129.239 58.6161 126.562 75.6938 116.096 91.4735C115.529 92.3254 114.636 92.9744 113.784 93.664C108.024 98.2884 102.304 102.872 96.4226 107.578Z"
            fill="black" />
        <path
            d="M14.3599 141.247C9.53272 141.247 4.82721 141.247 0 141.247C0 129.199 0 117.111 0 104.901C3.97535 104.901 7.99126 104.901 12.21 104.901C12.8996 116.908 13.6298 128.996 14.3599 141.247Z"
            fill="black" />
        <path
            d="M17.1587 107.253C18.8624 107.253 20.3227 107.253 21.9859 107.253C22.6755 116.948 23.3651 126.603 24.0547 136.338C22.2699 136.338 20.6473 136.338 18.8624 136.338C18.2945 126.643 17.7266 117.029 17.1587 107.253Z"
            fill="black" />
        <path
            d="M67.9458 60.9688C66.6072 60.9688 65.5525 59.9953 65.5119 58.6161C65.4714 57.1963 66.4855 56.1011 67.9052 56.1011C69.325 56.1011 70.3797 57.1558 70.3391 58.5755C70.2986 59.9547 69.2844 60.9688 67.9458 60.9688Z"
            fill="black" />
    </g>
    <defs>
        <clipPath id="clip0_18_29">
            <rect width="126.4" height="141.247" fill="white" />
        </clipPath>
    </defs>
</svg>
    