<svg width="152" height="152" viewBox="0 0 152 152" fill="none" xmlns="http://www.w3.org/2000/svg">
    <g clip-path="url(#clip0_18_233)">
        <path
            d="M76.0376 151.962C55.7937 151.962 35.5498 151.962 15.306 151.962C7.55783 151.962 1.29096 146.482 0.151532 138.811C-0.911936 131.592 3.83569 124.412 11.0901 122.371C12.5333 121.955 14.0906 121.804 15.5718 121.766C42.6523 121.729 69.6948 121.729 96.7752 121.729C110.031 121.729 123.324 121.729 136.579 121.729C143.112 121.729 148.733 125.546 150.974 131.479C153.253 137.45 151.582 144.026 146.682 148.296C143.872 150.715 140.529 151.962 136.769 151.962C116.563 151.962 96.3195 151.962 76.0376 151.962ZM21.307 136.959C21.3449 133.595 18.5723 130.836 15.23 130.836C11.9636 130.836 9.19101 133.595 9.19101 136.808C9.15303 140.133 11.9636 142.93 15.306 142.93C18.5723 142.892 21.307 140.171 21.307 136.959ZM142.884 136.77C142.846 133.557 140.036 130.799 136.731 130.836C133.465 130.874 130.692 133.633 130.73 136.883C130.73 140.247 133.579 142.968 136.959 142.93C140.225 142.854 142.922 140.058 142.884 136.77ZM82.1145 136.77C82.0766 133.557 79.266 130.799 75.9996 130.799C72.7332 130.799 69.9606 133.595 69.9606 136.845C69.9606 140.133 72.6953 142.854 75.9996 142.892C79.3419 142.93 82.1145 140.171 82.1145 136.77Z"
            fill="black" />
        <path
            d="M105.321 27.1725C105.967 27.2103 106.461 27.1725 106.954 27.2859C108.436 27.6638 109.423 28.533 109.461 30.1581C109.499 31.8965 108.512 32.8036 106.954 33.2193C106.537 33.3326 106.081 33.2571 105.625 33.2571C85.9508 33.2571 66.2766 33.2571 46.6025 33.2571C46.1087 33.2571 45.577 33.3326 45.0832 33.1815C43.602 32.7658 42.6904 31.821 42.6904 30.1959C42.6904 28.533 43.64 27.6638 45.1212 27.2481C45.615 27.1347 46.1087 27.1725 46.8683 27.0969C47.8558 17.4599 52.2616 9.75035 60.5415 4.42166C66.0487 0.906987 72.1257 -0.491322 78.6205 0.0377679C92.0278 1.24712 104.03 11.9045 105.321 27.1725Z"
            fill="black" />
        <path
            d="M51.8059 39.3794C68.0617 39.3794 84.0517 39.3794 100.27 39.3794C100.649 45.5773 98.9023 51.0194 95.1042 55.8568C91.3441 60.6564 86.3686 63.4908 80.4056 64.8513C90.7364 65.7961 98.8264 70.4823 104.789 79.2879C85.495 79.2879 66.5425 79.2879 47.2861 79.2879C53.1732 70.4823 61.2631 65.8339 71.632 64.8513C65.6689 63.4908 60.6934 60.6186 56.9333 55.819C53.1352 51.0194 51.3881 45.5395 51.8059 39.3794Z"
            fill="black" />
        <path
            d="M15.2688 115.568C15.2688 106.423 15.2309 97.4282 15.2688 88.4337C15.2688 86.6574 16.4842 85.4859 18.3073 85.4859C28.4103 85.4481 38.5512 85.4481 48.6541 85.4859C50.3633 85.4859 51.6546 86.6574 51.6546 88.2447C51.6926 97.3148 51.6926 106.347 51.6926 115.531C39.5767 115.568 27.5367 115.568 15.2688 115.568Z"
            fill="black" />
        <path
            d="M136.769 115.606C124.54 115.606 112.538 115.606 100.422 115.606C100.384 115.002 100.346 114.435 100.346 113.906C100.346 105.742 100.346 97.5416 100.346 89.3785C100.346 86.4685 101.295 85.5237 104.182 85.5237C113.867 85.5237 123.514 85.5237 133.199 85.5237C135.364 85.5237 136.769 86.5063 136.769 88.3203C136.807 97.3526 136.769 106.385 136.769 115.606Z"
            fill="black" />
        <path
            d="M94.2304 115.606C82.0385 115.606 70.0365 115.606 57.9206 115.606C57.8826 115.077 57.8066 114.51 57.8066 113.981C57.8066 105.742 57.8066 97.5037 57.8066 89.2651C57.8066 86.5062 58.8321 85.5236 61.5668 85.4858C71.2519 85.4858 80.8991 85.4858 90.5843 85.4858C92.9011 85.4858 94.2304 86.544 94.2304 88.5848C94.2684 97.5037 94.2304 106.46 94.2304 115.606Z"
            fill="black" />
    </g>
    <defs>
        <clipPath id="clip0_18_233">
            <rect width="152" height="152" fill="white" />
        </clipPath>
    </defs>
</svg>
    